{
  "source": "C:\\Users\\Peter\\Desktop\\stuff\\MIUN\\quantitative_research\\video_compression\\videos\\BVI-HD\\BVI-HD_CDVL_videos\\ORIG\\Rowing_1920x1080_30fps.mp4",
  "output": "C:\\Users\\Peter\\Desktop\\stuff\\MIUN\\quantitative_research\\video_compression\\compressed_videos\\BVI-HD\\vp9\\1.5\\Rowing_1920x1080_30fps_vp9.webm",
  "codec": "vp9",
  "ok": "Input #0, mov,mp4,m4a,3gp,3g2,mj2, from 'C:\\Users\\Peter\\Desktop\\stuff\\MIUN\\quantitative_research\\video_compression\\videos\\BVI-HD\\BVI-HD_CDVL_videos\\ORIG\\Rowing_1920x1080_30fps.mp4':\n  Metadata:\n    major_brand     : isom\n    minor_version   : 512\n    compatible_brands: isomiso2avc1mp41\n    encoder         : Lavf54.28.101\n  Duration: 00:00:05.00, start: 0.000000, bitrate: 259220 kb/s\n  Stream #0:0[0x1](und): Video: h264 (High 4:4:4 Predictive) (avc1 / 0x31637661), yuv420p(progressive), 1920x1080, 259216 kb/s, 30 fps, 30 tbr, 30 tbn (default)\n    Metadata:\n      handler_name    : VideoHandler\n      vendor_id       : [0][0][0][0]\n[out#0/webm @ 0000015e30899700] Codec AVOption b:a (set bitrate (in bits/s)) has not been used for any stream. The most likely reason is either wrong type (e.g. a video option with no video streams) or that it is a private option of some decoder which was not actually used for any stream.\nStream mapping:\n  Stream #0:0 -> #0:0 (h264 (native) -> vp9 (libvpx-vp9))\nPress [q] to stop, [?] for help\n[libvpx-vp9 @ 0000015e32930440] v1.15.2-100-g40561f514\nOutput #0, webm, to 'C:\\Users\\Peter\\Desktop\\stuff\\MIUN\\quantitative_research\\video_compression\\compressed_videos\\BVI-HD\\vp9\\1.5\\Rowing_1920x1080_30fps_vp9.webm':\n  Metadata:\n    major_brand     : isom\n    minor_version   : 512\n    compatible_brands: isomiso2avc1mp41\n    encoder         : Lavf62.3.100\n  Stream #0:0(und): Video: vp9, yuv420p(tv, progressive), 1920x1080, q=2-31, 1500 kb/s, 30 fps, 1k tbn (default)\n    Metadata:\n      encoder         : Lavc62.11.100 libvpx-vp9\n      handler_name    : VideoHandler\n      vendor_id       : [0][0][0][0]\n    Side data:\n      cpb: bitrate max/min/avg: 0/0/0 buffer size: 1500000 vbv_delay: N/A\nframe=    0 fps=0.0 q=0.0 size=       0KiB time=N/A bitrate=N/A speed=N/A elapsed=0:00:00.52    \nframe=    2 fps=1.7 q=57.0 size=       1KiB time=00:00:00.06 bitrate=  76.1kbits/s speed=0.0561x elapsed=0:00:01.18    \nframe=    6 fps=3.5 q=63.0 size=       1KiB time=00:00:00.20 bitrate=  25.4kbits/s speed=0.118x elapsed=0:00:01.69    \nframe=   10 fps=4.5 q=63.0 size=       1KiB time=00:00:00.33 bitrate=  15.2kbits/s speed=0.15x elapsed=0:00:02.21    \nframe=   13 fps=4.7 q=63.0 size=       1KiB time=00:00:00.43 bitrate=  11.7kbits/s speed=0.158x elapsed=0:00:02.74    \nframe=   17 fps=5.2 q=63.0 size=       1KiB time=00:00:00.56 bitrate=   9.0kbits/s speed=0.173x elapsed=0:00:03.26    \nframe=   20 fps=5.2 q=63.0 size=       1KiB time=00:00:00.66 bitrate=   7.6kbits/s speed=0.175x elapsed=0:00:03.81    \nframe=   24 fps=5.5 q=63.0 size=       1KiB time=00:00:00.80 bitrate=   6.3kbits/s speed=0.185x elapsed=0:00:04.33    \nframe=   27 fps=5.5 q=63.0 size=       1KiB time=00:00:00.90 bitrate=   5.6kbits/s speed=0.185x elapsed=0:00:04.87    \nframe=   30 fps=5.5 q=63.0 size=       1KiB time=00:00:01.00 bitrate=   5.1kbits/s speed=0.185x elapsed=0:00:05.40    \nframe=   33 fps=5.6 q=63.0 size=       1KiB time=00:00:01.10 bitrate=   4.6kbits/s speed=0.185x elapsed=0:00:05.93    \nframe=   36 fps=5.6 q=63.0 size=       1KiB time=00:00:01.20 bitrate=   4.2kbits/s speed=0.186x elapsed=0:00:06.45    \nframe=   39 fps=5.6 q=63.0 size=       1KiB time=00:00:01.30 bitrate=   3.9kbits/s speed=0.186x elapsed=0:00:07.00    \nframe=   42 fps=5.6 q=63.0 size=       1KiB time=00:00:01.40 bitrate=   3.6kbits/s speed=0.186x elapsed=0:00:07.54    \nframe=   45 fps=5.6 q=63.0 size=       1KiB time=00:00:01.50 bitrate=   3.4kbits/s speed=0.186x elapsed=0:00:08.08    \nframe=   48 fps=5.6 q=63.0 size=       1KiB time=00:00:01.60 bitrate=   3.2kbits/s speed=0.185x elapsed=0:00:08.62    \nframe=   51 fps=5.6 q=63.0 size=       1KiB time=00:00:01.70 bitrate=   3.0kbits/s speed=0.185x elapsed=0:00:09.18    \nframe=   54 fps=5.6 q=63.0 size=       1KiB time=00:00:01.80 bitrate=   2.8kbits/s speed=0.186x elapsed=0:00:09.69    \nframe=   58 fps=5.7 q=63.0 size=       1KiB time=00:00:01.90 bitrate=   2.7kbits/s speed=0.186x elapsed=0:00:10.21    \nframe=   60 fps=5.6 q=63.0 size=       1KiB time=00:00:02.00 bitrate=   2.5kbits/s speed=0.186x elapsed=0:00:10.73    \nframe=   64 fps=5.7 q=63.0 size=       1KiB time=00:00:02.13 bitrate=   2.4kbits/s speed=0.19x elapsed=0:00:11.25    \nframe=   67 fps=5.7 q=63.0 size=       1KiB time=00:00:02.23 bitrate=   2.3kbits/s speed=0.19x elapsed=0:00:11.78    \nframe=   70 fps=5.7 q=63.0 size=       1KiB time=00:00:02.33 bitrate=   2.2kbits/s speed=0.19x elapsed=0:00:12.29    \nframe=   74 fps=5.8 q=63.0 size=       1KiB time=00:00:02.46 bitrate=   2.1kbits/s speed=0.193x elapsed=0:00:12.81    \nframe=   77 fps=5.8 q=55.0 size=       1KiB time=00:00:02.56 bitrate=   2.0kbits/s speed=0.192x elapsed=0:00:13.34    \nframe=   81 fps=5.8 q=63.0 size=       1KiB time=00:00:02.70 bitrate=   1.9kbits/s speed=0.195x elapsed=0:00:13.87    \nframe=   85 fps=5.9 q=63.0 size=       1KiB time=00:00:02.83 bitrate=   1.8kbits/s speed=0.197x elapsed=0:00:14.40    \nframe=   88 fps=5.9 q=63.0 size=       1KiB time=00:00:02.93 bitrate=   1.7kbits/s speed=0.196x elapsed=0:00:14.93    \nframe=   92 fps=5.9 q=63.0 size=       1KiB time=00:00:03.06 bitrate=   1.7kbits/s speed=0.198x elapsed=0:00:15.46    \nframe=   95 fps=5.9 q=54.0 size=       1KiB time=00:00:03.16 bitrate=   1.6kbits/s speed=0.198x elapsed=0:00:15.97    \nframe=   99 fps=6.0 q=63.0 size=       1KiB time=00:00:03.30 bitrate=   1.5kbits/s speed= 0.2x elapsed=0:00:16.49    \nframe=  102 fps=6.0 q=63.0 size=       1KiB time=00:00:03.40 bitrate=   1.5kbits/s speed= 0.2x elapsed=0:00:17.01    \nframe=  106 fps=6.0 q=63.0 size=       1KiB time=00:00:03.53 bitrate=   1.4kbits/s speed=0.201x elapsed=0:00:17.54    \nframe=  110 fps=6.1 q=63.0 size=       1KiB time=00:00:03.66 bitrate=   1.4kbits/s speed=0.203x elapsed=0:00:18.06    \nframe=  114 fps=6.1 q=63.0 size=       1KiB time=00:00:03.80 bitrate=   1.3kbits/s speed=0.204x elapsed=0:00:18.58    \nframe=  118 fps=6.2 q=63.0 size=       1KiB time=00:00:03.93 bitrate=   1.3kbits/s speed=0.206x elapsed=0:00:19.11    \nframe=  123 fps=6.3 q=63.0 size=       1KiB time=00:00:04.10 bitrate=   1.2kbits/s speed=0.209x elapsed=0:00:19.64    \nframe=  126 fps=6.3 q=63.0 size=       1KiB time=00:00:04.20 bitrate=   1.2kbits/s speed=0.208x elapsed=0:00:20.14    \nframe=  126 fps=6.1 q=63.0 size=       1KiB time=00:00:04.20 bitrate=   1.2kbits/s speed=0.203x elapsed=0:00:20.66    \nframe=  126 fps=6.0 q=63.0 size=       1KiB time=00:00:04.20 bitrate=   1.2kbits/s speed=0.198x elapsed=0:00:21.17    \nframe=  126 fps=5.8 q=63.0 size=       1KiB time=00:00:04.20 bitrate=   1.2kbits/s speed=0.194x elapsed=0:00:21.69    \nframe=  126 fps=5.7 q=63.0 size=       1KiB time=00:00:04.20 bitrate=   1.2kbits/s speed=0.189x elapsed=0:00:22.21    \nframe=  126 fps=5.5 q=63.0 size=       1KiB time=00:00:04.20 bitrate=   1.2kbits/s speed=0.185x elapsed=0:00:22.73    \n[out#0/webm @ 0000015e30899700] video:1089KiB audio:0KiB subtitle:0KiB other streams:0KiB global headers:0KiB muxing overhead: 0.158170%\nframe=  150 fps=6.6 q=63.0 Lsize=    1091KiB time=00:00:05.00 bitrate=1787.2kbits/s speed=0.219x elapsed=0:00:22.87    \n",
  "seconds": 23.14275360107422,
  "probe_out": {}
}